<mxfile host="app.diagrams.net" agent="Mozilla/5.0 (Windows NT 10.0; Win64; x64) AppleWebKit/537.36 (KHTML, like Gecko) Chrome/130.0.0.0 Safari/537.36" version="24.8.3">
  <diagram name="Halaman-1" id="jjPbN-mT1EbiG51Dy9Li">
    <mxGraphModel grid="1" page="1" gridSize="10" guides="1" tooltips="1" connect="1" arrows="1" fold="1" pageScale="1" pageWidth="827" pageHeight="1169" math="0" shadow="0">
      <root>
        <mxCell id="0" />
        <mxCell id="1" parent="0" />
        <mxCell id="ErBXcJ-Mswv69xuC4HxP-105" value="Menginisialisasi Serial 115200" style="whiteSpace=wrap;strokeWidth=2;fontFamily=Comic Sans MS;fontSize=16;" vertex="1" parent="1">
          <mxGeometry x="412" y="139" width="215" height="49" as="geometry" />
        </mxCell>
        <mxCell id="ErBXcJ-Mswv69xuC4HxP-106" value="Menghubungkan ke WiFi" style="whiteSpace=wrap;strokeWidth=2;fontFamily=Comic Sans MS;fontSize=16;" vertex="1" parent="1">
          <mxGeometry x="403" y="237" width="232" height="49" as="geometry" />
        </mxCell>
        <mxCell id="ErBXcJ-Mswv69xuC4HxP-107" value="Apakah terhubung ke WiFi?" style="rhombus;strokeWidth=2;whiteSpace=wrap;fontFamily=Comic Sans MS;fontSize=16;" vertex="1" parent="1">
          <mxGeometry x="279" y="336" width="243" height="243" as="geometry" />
        </mxCell>
        <mxCell id="ErBXcJ-Mswv69xuC4HxP-108" value="Tampilkan Alamat IP" style="whiteSpace=wrap;strokeWidth=2;fontFamily=Comic Sans MS;fontSize=16;" vertex="1" parent="1">
          <mxGeometry x="245" y="651" width="206" height="49" as="geometry" />
        </mxCell>
        <mxCell id="ErBXcJ-Mswv69xuC4HxP-109" value="Tunggu 1 detik" style="whiteSpace=wrap;strokeWidth=2;fontFamily=Comic Sans MS;fontSize=16;" vertex="1" parent="1">
          <mxGeometry x="501" y="651" width="165" height="49" as="geometry" />
        </mxCell>
        <mxCell id="ErBXcJ-Mswv69xuC4HxP-110" value="Menginisialisasi Server" style="whiteSpace=wrap;strokeWidth=2;fontFamily=Comic Sans MS;fontSize=16;" vertex="1" parent="1">
          <mxGeometry x="238" y="750" width="221" height="49" as="geometry" />
        </mxCell>
        <mxCell id="ErBXcJ-Mswv69xuC4HxP-111" value="Masuk ke Loop" style="whiteSpace=wrap;strokeWidth=2;fontFamily=Comic Sans MS;fontSize=16;" vertex="1" parent="1">
          <mxGeometry x="266" y="849" width="164" height="49" as="geometry" />
        </mxCell>
        <mxCell id="ErBXcJ-Mswv69xuC4HxP-112" value="Mengakses Client" style="whiteSpace=wrap;strokeWidth=2;fontFamily=Comic Sans MS;fontSize=16;" vertex="1" parent="1">
          <mxGeometry x="161" y="947" width="183" height="49" as="geometry" />
        </mxCell>
        <mxCell id="ErBXcJ-Mswv69xuC4HxP-113" value="Apakah ada Client yang terhubung?" style="rhombus;strokeWidth=2;whiteSpace=wrap;fontFamily=Comic Sans MS;fontSize=16;" vertex="1" parent="1">
          <mxGeometry x="189" y="1046" width="235" height="235" as="geometry" />
        </mxCell>
        <mxCell id="ErBXcJ-Mswv69xuC4HxP-114" value="Tampilkan pesan sambutan di Client" style="whiteSpace=wrap;strokeWidth=2;fontFamily=Comic Sans MS;fontSize=16;" vertex="1" parent="1">
          <mxGeometry x="179" y="1354" width="253" height="66" as="geometry" />
        </mxCell>
        <mxCell id="ErBXcJ-Mswv69xuC4HxP-115" value="Tunggu 1 detik" style="whiteSpace=wrap;strokeWidth=2;fontFamily=Comic Sans MS;fontSize=16;" vertex="1" parent="1">
          <mxGeometry x="223" y="1470" width="165" height="49" as="geometry" />
        </mxCell>
        <mxCell id="ErBXcJ-Mswv69xuC4HxP-116" value="Putuskan Client" style="whiteSpace=wrap;strokeWidth=2;fontFamily=Comic Sans MS;fontSize=16;" vertex="1" parent="1">
          <mxGeometry x="241" y="1569" width="172" height="49" as="geometry" />
        </mxCell>
        <mxCell id="ErBXcJ-Mswv69xuC4HxP-117" value="" style="curved=1;startArrow=none;endArrow=block;exitX=0.5;exitY=0.99;entryX=0.5;entryY=-0.01;rounded=0;fontFamily=Comic Sans MS;fontSize=16;" edge="1" parent="1" target="ErBXcJ-Mswv69xuC4HxP-105">
          <mxGeometry relative="1" as="geometry">
            <Array as="points" />
            <mxPoint x="519" y="89" as="sourcePoint" />
          </mxGeometry>
        </mxCell>
        <mxCell id="ErBXcJ-Mswv69xuC4HxP-118" value="" style="curved=1;startArrow=none;endArrow=block;exitX=0.5;exitY=0.99;entryX=0.5;entryY=0.01;rounded=0;fontFamily=Comic Sans MS;fontSize=16;" edge="1" parent="1" source="ErBXcJ-Mswv69xuC4HxP-105" target="ErBXcJ-Mswv69xuC4HxP-106">
          <mxGeometry relative="1" as="geometry">
            <Array as="points" />
          </mxGeometry>
        </mxCell>
        <mxCell id="ErBXcJ-Mswv69xuC4HxP-119" value="" style="curved=1;startArrow=none;endArrow=block;exitX=0.25;exitY=1;entryX=0.5;entryY=0;rounded=0;fontFamily=Comic Sans MS;fontSize=16;" edge="1" parent="1" source="ErBXcJ-Mswv69xuC4HxP-106" target="ErBXcJ-Mswv69xuC4HxP-107">
          <mxGeometry relative="1" as="geometry">
            <Array as="points">
              <mxPoint x="400" y="311" />
            </Array>
          </mxGeometry>
        </mxCell>
        <mxCell id="ErBXcJ-Mswv69xuC4HxP-120" value="Ya" style="curved=1;startArrow=none;endArrow=block;exitX=0.33;exitY=1;entryX=0.5;entryY=0.01;rounded=0;fontFamily=Comic Sans MS;fontSize=16;" edge="1" parent="1" source="ErBXcJ-Mswv69xuC4HxP-107" target="ErBXcJ-Mswv69xuC4HxP-108">
          <mxGeometry relative="1" as="geometry">
            <Array as="points">
              <mxPoint x="348" y="615" />
            </Array>
          </mxGeometry>
        </mxCell>
        <mxCell id="ErBXcJ-Mswv69xuC4HxP-121" value="Tidak" style="curved=1;startArrow=none;endArrow=block;exitX=0.72;exitY=1;entryX=0.23;entryY=0.01;rounded=0;fontFamily=Comic Sans MS;fontSize=16;" edge="1" parent="1" source="ErBXcJ-Mswv69xuC4HxP-107" target="ErBXcJ-Mswv69xuC4HxP-109">
          <mxGeometry relative="1" as="geometry">
            <Array as="points">
              <mxPoint x="471" y="615" />
            </Array>
          </mxGeometry>
        </mxCell>
        <mxCell id="ErBXcJ-Mswv69xuC4HxP-122" value="" style="curved=1;startArrow=none;endArrow=block;exitX=0.5;exitY=0.01;entryX=0.64;entryY=1;rounded=0;fontFamily=Comic Sans MS;fontSize=16;" edge="1" parent="1" source="ErBXcJ-Mswv69xuC4HxP-109" target="ErBXcJ-Mswv69xuC4HxP-106">
          <mxGeometry relative="1" as="geometry">
            <Array as="points">
              <mxPoint x="584" y="311" />
            </Array>
          </mxGeometry>
        </mxCell>
        <mxCell id="ErBXcJ-Mswv69xuC4HxP-123" value="" style="curved=1;startArrow=none;endArrow=block;exitX=0.5;exitY=1;entryX=0.5;entryY=0;rounded=0;fontFamily=Comic Sans MS;fontSize=16;" edge="1" parent="1" source="ErBXcJ-Mswv69xuC4HxP-108" target="ErBXcJ-Mswv69xuC4HxP-110">
          <mxGeometry relative="1" as="geometry">
            <Array as="points" />
          </mxGeometry>
        </mxCell>
        <mxCell id="ErBXcJ-Mswv69xuC4HxP-124" value="" style="curved=1;startArrow=none;endArrow=block;exitX=0.5;exitY=0.99;entryX=0.5;entryY=-0.01;rounded=0;fontFamily=Comic Sans MS;fontSize=16;" edge="1" parent="1" source="ErBXcJ-Mswv69xuC4HxP-110" target="ErBXcJ-Mswv69xuC4HxP-111">
          <mxGeometry relative="1" as="geometry">
            <Array as="points" />
          </mxGeometry>
        </mxCell>
        <mxCell id="ErBXcJ-Mswv69xuC4HxP-125" value="" style="curved=1;startArrow=none;endArrow=block;exitX=0.21;exitY=0.99;entryX=0.5;entryY=0.01;rounded=0;fontFamily=Comic Sans MS;fontSize=16;" edge="1" parent="1" source="ErBXcJ-Mswv69xuC4HxP-111" target="ErBXcJ-Mswv69xuC4HxP-112">
          <mxGeometry relative="1" as="geometry">
            <Array as="points">
              <mxPoint x="253" y="922" />
            </Array>
          </mxGeometry>
        </mxCell>
        <mxCell id="ErBXcJ-Mswv69xuC4HxP-126" value="" style="curved=1;startArrow=none;endArrow=block;exitX=0.5;exitY=1;entryX=0.31;entryY=0;rounded=0;fontFamily=Comic Sans MS;fontSize=16;" edge="1" parent="1" source="ErBXcJ-Mswv69xuC4HxP-112" target="ErBXcJ-Mswv69xuC4HxP-113">
          <mxGeometry relative="1" as="geometry">
            <Array as="points">
              <mxPoint x="253" y="1021" />
            </Array>
          </mxGeometry>
        </mxCell>
        <mxCell id="ErBXcJ-Mswv69xuC4HxP-127" value="Ya" style="curved=1;startArrow=none;endArrow=block;exitX=0.5;exitY=1;entryX=0.5;entryY=-0.01;rounded=0;fontFamily=Comic Sans MS;fontSize=16;" edge="1" parent="1" source="ErBXcJ-Mswv69xuC4HxP-113" target="ErBXcJ-Mswv69xuC4HxP-114">
          <mxGeometry relative="1" as="geometry">
            <Array as="points" />
          </mxGeometry>
        </mxCell>
        <mxCell id="ErBXcJ-Mswv69xuC4HxP-128" value="" style="curved=1;startArrow=none;endArrow=block;exitX=0.5;exitY=1;entryX=0.5;entryY=0;rounded=0;fontFamily=Comic Sans MS;fontSize=16;" edge="1" parent="1" source="ErBXcJ-Mswv69xuC4HxP-114" target="ErBXcJ-Mswv69xuC4HxP-115">
          <mxGeometry relative="1" as="geometry">
            <Array as="points" />
          </mxGeometry>
        </mxCell>
        <mxCell id="ErBXcJ-Mswv69xuC4HxP-129" value="" style="curved=1;startArrow=none;endArrow=block;exitX=0.5;exitY=0.99;entryX=0.44;entryY=-0.01;rounded=0;fontFamily=Comic Sans MS;fontSize=16;" edge="1" parent="1" source="ErBXcJ-Mswv69xuC4HxP-115" target="ErBXcJ-Mswv69xuC4HxP-116">
          <mxGeometry relative="1" as="geometry">
            <Array as="points">
              <mxPoint x="306" y="1544" />
            </Array>
          </mxGeometry>
        </mxCell>
        <mxCell id="ErBXcJ-Mswv69xuC4HxP-130" value="" style="curved=1;startArrow=none;endArrow=block;exitX=0.99;exitY=-0.01;entryX=0.95;entryY=0.99;rounded=0;fontFamily=Comic Sans MS;fontSize=16;" edge="1" parent="1" source="ErBXcJ-Mswv69xuC4HxP-116" target="ErBXcJ-Mswv69xuC4HxP-111">
          <mxGeometry relative="1" as="geometry">
            <Array as="points">
              <mxPoint x="497" y="1544" />
              <mxPoint x="497" y="922" />
            </Array>
          </mxGeometry>
        </mxCell>
        <mxCell id="ErBXcJ-Mswv69xuC4HxP-131" value="Tidak" style="curved=1;startArrow=none;endArrow=block;exitX=0.83;exitY=0;entryX=0.66;entryY=0.99;rounded=0;fontFamily=Comic Sans MS;fontSize=16;" edge="1" parent="1" source="ErBXcJ-Mswv69xuC4HxP-113" target="ErBXcJ-Mswv69xuC4HxP-111">
          <mxGeometry relative="1" as="geometry">
            <Array as="points">
              <mxPoint x="401" y="1021" />
              <mxPoint x="401" y="922" />
            </Array>
          </mxGeometry>
        </mxCell>
        <mxCell id="ErBXcJ-Mswv69xuC4HxP-132" value="&lt;font style=&quot;font-size: 16px;&quot; face=&quot;Comic Sans MS&quot;&gt;Mulai&lt;/font&gt;" style="ellipse;whiteSpace=wrap;html=1;fontColor=default;strokeWidth=2;" vertex="1" parent="1">
          <mxGeometry x="459.5" y="10" width="120" height="80" as="geometry" />
        </mxCell>
      </root>
    </mxGraphModel>
  </diagram>
</mxfile>
